<svg xmlns="http://www.w3.org/2000/svg" xmlns:xlink="http://www.w3.org/1999/xlink" width="1600" zoomAndPan="magnify" viewBox="0 0 1200 1199.999942" height="1600" preserveAspectRatio="xMidYMid meet" version="1.0"><defs><clipPath id="93201fbf3e"><path d="M 268 412.46875 L 611 412.46875 L 611 787.53125 L 268 787.53125 Z M 268 412.46875 " clip-rule="nonzero"/></clipPath><clipPath id="23f63e9872"><path d="M 289.199219 420.78125 C 274.699219 423.1875 274.683594 423.1875 274.683594 436.316406 L 274.683594 780.195312 C 280.4375 778.40625 284.742188 777.046875 289.199219 775.660156 Z M 295.691406 774.996094 L 603.460938 774.996094 L 603.460938 418.960938 L 295.691406 418.960938 Z M 268.835938 772.757812 C 268.898438 658.621094 268.992188 544.484375 268.683594 430.34375 C 268.667969 422.0625 270.609375 417.542969 279.339844 416.523438 C 288.425781 415.472656 297.453125 413.007812 306.507812 412.976562 C 403.890625 412.710938 501.277344 412.960938 598.664062 412.589844 C 608.195312 412.558594 610.433594 415.074219 610.417969 424.113281 C 610.09375 539.746094 610.109375 655.382812 610.417969 771.015625 C 610.433594 778.960938 607.765625 782.507812 600.203125 783.496094 C 590.515625 784.746094 580.84375 787.136719 571.15625 787.167969 C 474.082031 787.445312 377.003906 787.367188 279.925781 787.226562 " clip-rule="nonzero"/></clipPath><clipPath id="eced2d3809"><path d="M 274 420.09375 L 290 420.09375 L 290 781 L 274 781 Z M 274 420.09375 " clip-rule="nonzero"/></clipPath><clipPath id="5ebd99f543"><path d="M 289.199219 420.78125 L 289.199219 775.660156 C 284.757812 777.046875 280.4375 778.40625 274.683594 780.195312 L 274.683594 436.316406 C 274.683594 423.1875 274.683594 423.1875 289.199219 420.78125 " clip-rule="nonzero"/></clipPath><clipPath id="f722202fba"><path d="M 357.214844 465 L 574.886719 465 L 574.886719 734 L 357.214844 734 Z M 357.214844 465 " clip-rule="nonzero"/></clipPath><clipPath id="cd038cb048"><path d="M 365.480469 470.484375 C 373.609375 548.539062 381.648438 625.777344 389.683594 702.957031 L 569.289062 702.957031 C 561.175781 625.144531 553.140625 547.921875 545.054688 470.484375 Z M 357.660156 465.394531 L 549.945312 465.394531 C 552.863281 492.605469 555.730469 519.230469 558.539062 545.855469 C 563.351562 591.472656 568.132812 637.085938 572.917969 682.699219 C 573.578125 689.101562 574.582031 695.503906 574.628906 701.921875 C 574.660156 704.777344 573.457031 708.292969 571.542969 710.40625 C 550.441406 733.605469 550.378906 733.546875 518.554688 733.546875 C 468.589844 733.546875 418.609375 733.546875 368.644531 733.546875 C 357.675781 733.546875 357.675781 733.53125 357.675781 723.273438 C 357.675781 640.339844 357.675781 557.425781 357.675781 474.496094 Z M 357.660156 465.394531 " clip-rule="nonzero"/></clipPath><clipPath id="0047df6cf0"><path d="M 268.851562 729.425781 L 290.726562 729.425781 L 290.726562 787.351562 L 268.851562 787.351562 Z M 268.851562 729.425781 " clip-rule="nonzero"/></clipPath><clipPath id="db6d55ce9c"><path d="M 365 470.40625 L 569.304688 470.40625 L 569.304688 703 L 365 703 Z M 365 470.40625 " clip-rule="nonzero"/></clipPath><clipPath id="4dc784ccae"><path d="M 569.289062 702.957031 L 389.683594 702.957031 L 365.480469 470.484375 L 545.070312 470.484375 Z M 569.289062 702.957031 " clip-rule="nonzero"/></clipPath><clipPath id="67865cf607"><path d="M 651.820312 428.238281 L 939.0625 428.238281 L 939.0625 779.832031 L 651.820312 779.832031 Z M 651.820312 428.238281 " clip-rule="nonzero"/></clipPath><clipPath id="20e0d784a6"><path d="M 651.820312 428.5 L 651.820312 779 L 715.035156 779 L 715.035156 538.121094 C 717.859375 542.113281 719.277344 544.027344 720.605469 546.003906 C 771.375 621.730469 822.125 697.488281 872.984375 773.167969 C 874.683594 775.699219 877.519531 779.277344 879.910156 779.339844 C 899.519531 779.832031 919.15625 779.617188 939.054688 779.617188 L 939.054688 429.042969 L 875.871094 429.042969 L 875.871094 671.0625 C 872.585938 666.449219 870.808594 664.089844 869.175781 661.636719 C 818.640625 586.109375 768.132812 510.554688 717.488281 435.105469 C 715.667969 432.402344 712.382812 428.855469 709.699219 428.777344 C 690.664062 428.238281 671.597656 428.5 651.820312 428.5 " clip-rule="nonzero"/></clipPath><clipPath id="19b34fae99"><path d="M 272.492188 419.539062 L 292.910156 419.539062 L 292.910156 780 L 272.492188 780 Z M 272.492188 419.539062 " clip-rule="nonzero"/></clipPath></defs><g clip-path="url(#93201fbf3e)"><g clip-path="url(#23f63e9872)"><path fill="#000000" d="M 260.9375 404.84375 L 618.140625 404.84375 L 618.140625 795.15625 L 260.9375 795.15625 Z M 260.9375 404.84375 " fill-opacity="1" fill-rule="nonzero"/></g></g><g clip-path="url(#eced2d3809)"><g clip-path="url(#5ebd99f543)"><path fill="#000000" d="M 260.9375 404.84375 L 618.140625 404.84375 L 618.140625 795.15625 L 260.9375 795.15625 Z M 260.9375 404.84375 " fill-opacity="1" fill-rule="nonzero"/></g></g><g clip-path="url(#f722202fba)"><g clip-path="url(#cd038cb048)"><path fill="#000000" d="M 260.9375 404.84375 L 618.140625 404.84375 L 618.140625 795.15625 L 260.9375 795.15625 Z M 260.9375 404.84375 " fill-opacity="1" fill-rule="nonzero"/></g></g><g clip-path="url(#0047df6cf0)"><path fill="#000000" d="M 260.9375 404.84375 L 618.140625 404.84375 L 618.140625 795.15625 L 260.9375 795.15625 Z M 260.9375 404.84375 " fill-opacity="1" fill-rule="nonzero"/></g><g clip-path="url(#db6d55ce9c)"><g clip-path="url(#4dc784ccae)"><path fill="#3faaef" d="M 260.9375 404.84375 L 618.140625 404.84375 L 618.140625 795.15625 L 260.9375 795.15625 Z M 260.9375 404.84375 " fill-opacity="1" fill-rule="nonzero"/></g></g><g clip-path="url(#67865cf607)"><g clip-path="url(#20e0d784a6)"><path fill="#000000" d="M 651.820312 428.238281 L 939.0625 428.238281 L 939.0625 779.832031 L 651.820312 779.832031 Z M 651.820312 428.238281 " fill-opacity="1" fill-rule="nonzero"/></g></g><g clip-path="url(#19b34fae99)"><path fill="#000000" d="M 272.492188 419.539062 L 292.910156 419.539062 L 292.910156 780 L 272.492188 780 Z M 272.492188 419.539062 " fill-opacity="1" fill-rule="nonzero"/></g></svg>